<svg xmlns="http://www.w3.org/2000/svg" xmlns:xlink="http://www.w3.org/1999/xlink" preserveAspectRatio="xMidYMid" width="237" height="168" viewBox="0 0 237 168">
  <defs>
    <style>

      .cls-2 {
        fill: #f4e6cc;
      }
    </style>
  </defs>
  <path d="M223.000,168.000 C223.000,168.000 223.833,162.833 227.000,159.000 C230.167,155.167 237.000,154.000 237.000,154.000 C237.000,154.000 237.000,168.000 237.000,168.000 C237.000,168.000 223.000,168.000 223.000,168.000 ZM227.000,9.000 C223.833,5.167 223.000,-0.000 223.000,-0.000 C223.000,-0.000 237.000,-0.000 237.000,-0.000 C237.000,-0.000 237.000,14.000 237.000,14.000 C237.000,14.000 230.167,12.833 227.000,9.000 ZM-0.000,154.000 C-0.000,154.000 6.833,155.167 10.000,159.000 C13.167,162.833 14.000,168.000 14.000,168.000 C14.000,168.000 -0.000,168.000 -0.000,168.000 C-0.000,168.000 -0.000,154.000 -0.000,154.000 ZM-0.000,14.000 C-0.000,14.000 -0.000,-0.000 -0.000,-0.000 C-0.000,-0.000 14.000,-0.000 14.000,-0.000 C14.000,-0.000 13.167,5.167 10.000,9.000 C6.833,12.833 -0.000,14.000 -0.000,14.000 Z" id="path-1" class="cls-2" fill-rule="evenodd"/>
</svg>
